<?xml version="1.0" encoding="UTF-8"?>
<svg width="292px" height="385px" viewBox="0 0 292 385" version="1.1" xmlns="http://www.w3.org/2000/svg" xmlns:xlink="http://www.w3.org/1999/xlink">
    <!-- Generator: Sketch 58 (84663) - https://sketch.com -->
    <title>Path</title>
    <desc>Created with Sketch.</desc>
    <g id="Page-1" stroke="none" stroke-width="1" fill="none" fill-rule="evenodd">
        <g id="icons" transform="translate(-110.000000, -73.000000)" fill="#000000" fill-rule="nonzero">
            <g id="p-billing" transform="translate(110.000000, 73.000000)">
                <path d="M195,162 L195,49 C195,37 185,27 173,27 L48,27 C36,27 26,37 26,49 L26,246 C26,258 36,268 48,268 L142,268 C149,268 155,274 155,281 C155,289 149,295 142,295 L53,295 C56,302 60,309 66,316 C67,317 68,318 69,319 L127,360 C133,365 134,373 130,379 C125,385 117,386 111,381 L52,340 L51,339 C49,337 48,335 46,333 C32,316 24,299 21,287 C8,278 0,263 0,246 L0,49 C0,22 22,0 48,0 L173,0 C200,0 221,22 221,49 L221,196 L228,207 C233,214 239,221 247,226 C275,245 292,277 292,312 L292,371 C292,378 286,384 279,384 C272,384 266,378 266,371 L266,312 C266,286 253,262 232,248 C222,241 213,232 206,221 L197,208 C197,207 197,207 197,207 L183,186 C178,181 170,181 163,185 C157,190 154,198 157,206 L203,312 C205,319 202,327 196,329 C189,332 181,329 178,322 L133,216 C125,197 131,175 148,163 C163,153 181,153 195,162 Z" id="Path"></path>
            </g>
        </g>
    </g>
</svg>