<?xml version="1.0" encoding="UTF-8"?>
<svg width="36px" height="36px" viewBox="0 0 36 36" version="1.1"
    xmlns="http://www.w3.org/2000/svg">
    <!-- Generator: Sketch 57.1 (83088) - https://sketch.com -->
    <title>account</title>
    <desc>Created with Sketch.</desc>
    <g id="UI" stroke="none" stroke-width="1" fill="none" fill-rule="evenodd" opacity="0.2">
        <g id="Other-User-Profile_Tags" transform="translate(-170.000000, -130.000000)"
            fill="#000000" fill-rule="nonzero">
            <g id="Group-4">
                <g id="Group-8" transform="translate(24.000000, 104.000000)">
                    <g id="Group-5">
                        <g id="Group-7" transform="translate(67.000000, 0.000000)">
                            <g id="Group-11" transform="translate(53.000000, 0.000000)">
                                <g id="Group-9">
                                    <g id="account" transform="translate(26.000000, 26.000000)">
                                        <path
                                            d="M18,-2.13162821e-15 C8.05898437,-2.13162821e-15 0,8.05898438 0,18 C0,27.9410156 8.05898437,36 18,36 C18.5422852,36 19.0825195,35.9756836 19.6201171,35.9273437 C20.1199219,35.8825196 20.615332,35.8139648 21.1069336,35.728125 L21.2958984,35.6947266 C30.4356445,33.9890625 36.7728516,25.6034179 35.9179688,16.3450195 C35.0630859,7.08662107 27.2976562,0.0029296875 18,-2.13162821e-15 Z M16.5539063,34.7364258 L16.5114258,34.7364258 C16.0447266,34.6951171 15.5815429,34.6327148 15.1224609,34.5527344 C15.0960937,34.5480469 15.0697266,34.5451171 15.0439453,34.5401367 C14.5951172,34.4598633 14.1509766,34.3602539 13.7112305,34.2439453 L13.6048828,34.2166992 C13.1759766,34.1003906 12.7517579,33.965332 12.3336914,33.815332 C12.290332,33.7998046 12.2466797,33.7860352 12.2033203,33.7699219 C11.793457,33.6193359 11.3909179,33.4505859 10.9945312,33.2680664 C10.9453125,33.2460937 10.8960937,33.225 10.846875,33.2015625 C10.4581054,33.0216796 10.0769531,32.8189453 9.703125,32.6056641 C9.65039062,32.5757812 9.59707035,32.5458984 9.5443359,32.5163086 C9.17636715,32.3015625 8.81689455,32.0712891 8.46416017,31.828125 C8.41083983,31.7909179 8.35693357,31.7548828 8.30390625,31.7176758 C7.9573242,31.471875 7.61953125,31.2108398 7.29052732,30.9377929 L7.2,30.8586914 L7.2,25.8 C7.20439455,22.1566406 10.1566406,19.2043945 13.8,19.2 L22.2,19.2 C25.8433594,19.2043945 28.7956055,22.1566406 28.8,25.8 L28.8,30.8592773 L28.7203125,30.9257812 C28.3848633,31.2058594 28.040625,31.4707031 27.6870117,31.7208984 C27.6401367,31.7537109 27.5926758,31.7850586 27.5460938,31.8172852 C27.1892579,32.0651367 26.8236329,32.2983398 26.4492188,32.5174804 C26.4023438,32.5447266 26.3542969,32.5705078 26.3077148,32.5974609 C25.9283204,32.8133789 25.5424805,33.0172852 25.1490234,33.2009766 C25.1039063,33.2220703 25.0584961,33.2416992 25.012793,33.2610352 C24.6131836,33.4453125 24.2071289,33.6149414 23.7943359,33.7666992 C23.7533204,33.7819336 23.7120117,33.7951171 23.6742188,33.8094727 C23.2541016,33.9600586 22.828125,34.0962891 22.396875,34.2131836 L22.2934571,34.2389648 C21.853125,34.3552734 21.4086914,34.4554687 20.9592773,34.5360352 C20.9334961,34.5407227 20.9077148,34.5439453 20.8819336,34.5480469 C20.4222656,34.6283203 19.9584961,34.6907227 19.4915039,34.7323242 L19.4490234,34.7323242 C18.9691406,34.7736328 18.4889648,34.7958984 18.0029297,34.7958984 C17.5168946,34.7958984 17.0329102,34.7777344 16.5539063,34.7364258 L16.5539063,34.7364258 Z M30,29.746875 L30,25.8 C29.9950196,21.4942383 26.5057617,18.0049804 22.2,18 L13.8,18 C9.4942383,18.0049804 6.00498045,21.4942383 6,25.8 L6,29.7462891 C-0.46230465,23.1506836 -0.390234375,12.5759766 6.16113285,6.06884767 C12.7125,-0.4379883 23.2875,-0.4379883 29.8388672,6.06884767 C36.3902344,12.5759766 36.4623047,23.1506836 30,29.7462891 L30,29.746875 Z"
                                            id="Shape"></path>
                                        <path
                                            d="M18,4.8 C14.6862305,4.8 12,7.48623045 12,10.8 C12,14.1137696 14.6862305,16.8 18,16.8 C21.3137695,16.8 24,14.1137696 24,10.8 C23.9964844,7.48769535 21.3123047,4.80351563 18,4.8 Z M18,15.6 C15.3489258,15.6 13.2,13.4510742 13.2,10.8 C13.2,8.1489258 15.3489258,6 18,6 C20.6510742,6 22.8,8.1489258 22.8,10.8 C22.7970703,13.4496094 20.6496094,15.5970703 18,15.6 Z"
                                            id="Shape"></path>
                                    </g>
                                </g>
                            </g>
                        </g>
                    </g>
                </g>
            </g>
        </g>
    </g>
</svg>