<?xml version="1.0" encoding="UTF-8"?>
<svg width="21px" height="13px" viewBox="0 0 21 13" version="1.1" xmlns="http://www.w3.org/2000/svg" xmlns:xlink="http://www.w3.org/1999/xlink">
    <!-- Generator: Sketch 63.1 (92452) - https://sketch.com -->
    <title>MasterCard</title>
    <desc>Created with Sketch.</desc>
    <g id="Page-1" stroke="none" stroke-width="1" fill="none" fill-rule="evenodd">
        <g id="Summrary" transform="translate(-30.000000, -337.000000)" fill-rule="nonzero">
            <g id="Group-3">
                <g id="Card" transform="translate(15.000000, 305.000000)">
                    <g id="Group-8" transform="translate(15.000000, 29.000000)">
                        <g id="MasterCard" transform="translate(0.000000, 3.000000)">
                            <path d="M7.89688664,6.05175731 C7.89688664,4.15286112 8.80375632,2.4584112 10.2225967,1.34886092 C9.1444877,0.505691182 7.77031366,1.37845291e-12 6.27404422,1.37845291e-12 C2.80874053,1.37845291e-12 2.22044605e-14,2.70930818 2.22044605e-14,6.05165198 C2.22044605e-14,9.39389044 2.80874053,12.102988 6.27404422,12.102988 C7.77053208,12.102988 9.1444877,11.5976128 10.2225967,10.754127 C8.80375632,9.64489275 7.89688664,7.95054817 7.89688664,6.05175731 Z" id="Path" fill="#EA001B"></path>
                            <path d="M14.1712585,0.000105330386 C12.6747706,0.000105330386 11.3012518,0.505796512 10.222706,1.34896625 C11.6417648,2.45851653 12.5486345,4.15296645 12.5486345,6.05186264 C12.5486345,7.9506535 11.6417648,9.64499808 10.222706,10.7543377 C11.3012518,11.5977181 12.674989,12.1031986 14.1712585,12.1031986 C17.6367806,12.1031986 20.4455211,9.39410111 20.4455211,6.05186264 C20.4455211,2.70941351 17.6365622,0.000105330386 14.1712585,0.000105330386 Z" id="Path" fill="#F79F1A"></path>
                            <path d="M12.5485253,6.05175731 C12.5485253,4.15286112 11.6416556,2.4584112 10.2225967,1.34886092 C8.80386553,2.4584112 7.89688664,4.15286112 7.89688664,6.05175731 C7.89688664,7.95054817 8.80375632,9.64489275 10.2225967,10.7542324 C11.6415464,9.64489275 12.5485253,7.95054817 12.5485253,6.05175731 Z" id="Path" fill="#FF5F01"></path>
                        </g>
                    </g>
                </g>
            </g>
        </g>
    </g>
</svg>