<svg id="Capa_1" enable-background="new 0 0 511.391 511.391" height="512" viewBox="0 0 511.391 511.391" width="512" xmlns="http://www.w3.org/2000/svg"><g><g><g><path d="m196.667 510.781c-30.946 0-59.854-8.859-81.397-24.945-25.587-19.106-35.602-53.621-24.354-83.934 18.153-48.918 26.736-89.871 30.74-115.612 4.343-27.922 4.387-44.477 4.387-44.641-.002-5.171 2.66-9.999 7.044-12.743l55.623-34.804c4.867-3.045 11.046-3.045 15.913 0l55.624 34.804c4.391 2.747 7.053 7.564 7.043 12.743 0 .655.375 66.604 35.127 160.253 11.248 30.313 1.234 64.828-24.353 83.934-21.543 16.086-50.451 24.945-81.397 24.945z" fill="#fbd7b2"/><path d="m302.418 401.902c-34.752-93.648-35.127-159.598-35.127-160.253.009-5.179-2.653-9.996-7.043-12.743l-55.624-34.804c-2.433-1.523-5.195-2.284-7.956-2.284v318.963c30.946 0 59.854-8.859 81.397-24.945 25.587-19.106 35.601-53.621 24.353-83.934z" fill="#fcbc89"/></g><g><path d="m323.321 263.554h-253.307c-28.07 0-50.907-22.837-50.907-50.907v-41.437c0-94.405 76.805-171.21 171.21-171.21h12.7c94.406 0 171.21 76.805 171.21 171.21v41.437c.001 28.07-22.836 50.907-50.906 50.907z" fill="#ba602b"/><path d="m203.018 0h-6.35v263.554h126.653c28.07 0 50.907-22.837 50.907-50.907v-41.437c0-94.405-76.805-171.21-171.21-171.21z" fill="#964c22"/></g></g><g><g><path d="m334.898 511.391c-27.177 0-52.623-6.852-71.65-19.293-23.939-15.652-33.153-44.309-22.408-69.688 11.456-27.059 18.845-40.964 23.728-49.523h-1.955c-46.924 0-85.1-34.259-85.1-76.368 0-73.182 67.051-132.72 149.468-132.72h15.835c82.417 0 149.468 59.538 149.468 132.719 0 42.11-38.176 76.369-85.1 76.369h-1.955c4.882 8.559 12.272 22.464 23.728 49.523 10.745 25.379 1.53 54.035-22.408 69.688-19.028 12.441-44.473 19.293-71.651 19.293z" fill="#fff2df"/><path d="m492.284 296.518c0-73.182-67.051-132.719-149.468-132.719h-7.918v347.591c27.177 0 52.623-6.852 71.65-19.293 23.938-15.652 33.153-44.309 22.408-69.688-11.456-27.059-18.846-40.964-23.728-49.523h1.955c46.925.001 85.101-34.258 85.101-76.368z" fill="#fde4c3"/></g><g><path d="m276.047 374.704c-21.549 0-39.08-17.531-39.08-39.08 0-21.548 17.531-39.08 39.08-39.08 8.284 0 15 6.716 15 15s-6.716 15-15 15c-5.007 0-9.08 4.073-9.08 9.08s4.073 9.08 9.08 9.08c8.284 0 15 6.716 15 15 0 8.285-6.716 15-15 15z" fill="#fbc182"/><path d="m393.749 374.704c-8.284 0-15-6.716-15-15s6.716-15 15-15c5.007 0 9.08-4.073 9.08-9.08 0-5.006-4.073-9.08-9.08-9.08-8.284 0-15-6.716-15-15s6.716-15 15-15c21.549 0 39.08 17.531 39.08 39.08.001 21.549-17.531 39.08-39.08 39.08z" fill="#f9a54c"/></g></g></g></svg>