<?xml version="1.0" encoding="UTF-8"?>
<svg width="88px" height="90px" viewBox="0 0 88 90" version="1.1" xmlns="http://www.w3.org/2000/svg" xmlns:xlink="http://www.w3.org/1999/xlink">
    <!-- Generator: Sketch 53.2 (72643) - https://sketchapp.com -->
    <title>004-search-1</title>
    <desc>Created with Sketch.</desc>
    <defs>
        <path d="M37.1862605,49.38182 C30.5975471,42.6371037 30.5975471,31.6632681 37.1862605,24.9190802 C43.7749739,18.174364 54.495984,18.1741879 61.0848737,24.918728 C67.6735872,31.6632681 67.6735872,42.6372798 61.0848737,49.3819961 C54.495984,56.1263601 43.7749739,56.1263601 37.1862605,49.38182 Z" id="path-1"></path>
    </defs>
    <g id="Page-1" stroke="none" stroke-width="1" fill="none" fill-rule="evenodd">
        <g id="Search" transform="translate(-144.000000, -113.000000)">
            <g id="No-Search" transform="translate(58.000000, 113.000000)">
                <g id="004-search-1" transform="translate(86.000000, 0.000000)">
                    <g id="background_7_" fill="#6BBBAE">
                        <ellipse id="SVGID_1_" cx="43.9998236" cy="44.9998239" rx="43.9617315" ry="44.9998239"></ellipse>
                    </g>
                    <path d="M66.0636633,54.4778278 C75.4172345,44.9036595 75.4211142,29.3845597 66.0675431,19.8100391 C56.7139719,10.2355186 41.5430541,10.2297065 32.1896593,19.8038748 C23.7028617,28.4910763 22.955479,42.1152446 29.8245932,51.6638748 L22.4227174,59.2406067 C21.8913667,59.7848337 21.8807856,60.7098434 22.4123126,61.2537182 L25.5392224,64.4549706 C26.0707495,64.9988454 26.9428136,64.9555186 27.474517,64.4114677 L34.869515,56.8421331 C44.2578277,63.9762622 57.5602886,63.1822896 66.0636633,54.4778278 Z" id="Path" fill="#FFFFFF"></path>
                    <path d="M22.5357595,59.2406067 C22.0042325,59.7848337 21.9375711,60.7098434 22.4685691,61.2537182 L25.5676152,64.4549706 C26.0991423,64.9988454 27.0701403,64.9555186 27.6018437,64.4114677 L29.0366493,63.0436791 L29.0366493,52.7016047 L22.5357595,59.2406067 Z" id="Path" fill="#88C8BE" fill-rule="nonzero" opacity="0.3"></path>
                    <path d="M61.8867495,50.2023875 C54.8444569,57.4111937 43.4266774,57.4111937 36.3843848,50.2023875 C29.3422685,42.9937573 29.3422685,31.3064384 36.3847375,24.0981605 C43.4268537,16.8895303 54.8444569,16.8895303 61.8867495,24.0981605 C68.9288657,31.3062622 68.9288657,42.9937573 61.8867495,50.2023875 Z" id="Path" fill="#6BBBAE" fill-rule="nonzero"></path>
                    <g id="Path">
                        <use fill="#FFFFFF" xlink:href="#path-1"></use>
                        <use fill-opacity="0.9" fill="#6BBBAE" xlink:href="#path-1"></use>
                    </g>
                    <path d="M64.4033026,20.5693151 C60.6004329,17.2229354 55.8664208,15.2628376 50.8611784,14.9525049 C45.915014,14.6456947 40.8933707,16.1087671 36.8206814,18.9863014 C35.9237515,19.6198239 36.7589579,21.1378474 37.6608257,20.5006262 C41.450998,17.822818 45.954517,16.4918395 50.5550301,16.6778278 C55.1821723,16.8648728 59.69398,18.7145401 63.2005772,21.8004305 C64.0273186,22.5276517 65.2358637,21.30182 64.4033026,20.5693151 L64.4033026,20.5693151 Z" id="Path" fill="#FBFFFF" fill-rule="nonzero"></path>
                    <path d="M61.2026774,46.4283757 C58.4573948,49.238454 54.0062525,49.238454 51.2609699,46.4283757 C48.5156874,43.6181213 48.5156874,39.0624658 51.2609699,36.2522114 C54.0062525,33.4417808 58.4573948,33.4417808 61.2026774,36.2522114 C63.9479599,39.0624658 63.9479599,43.6181213 61.2026774,46.4283757 Z" id="Path" fill="#FFFFFF" fill-rule="nonzero" opacity="0.200000003"></path>
                    <path d="M60.8836553,31.0026223 C60.1301002,31.7736986 58.9086814,31.7736986 58.1553026,31.0022701 C57.4019238,30.2311937 57.4019238,28.9810568 58.1553026,28.2098043 C58.9086814,27.4385519 60.1301002,27.4385519 60.883479,28.2101566 C61.6366814,28.9812329 61.6370341,30.2313699 60.8836553,31.0026223 Z" id="Path" fill="#FFFFFF" fill-rule="nonzero" opacity="0.200000003"></path>
                    <path d="M23.6794068,56.9691194 L8.9010501,72.0966928 C10.7308858,74.5760078 12.8049699,76.8554207 15.087503,78.8970646 L30.0942365,63.5359491 C31.8584689,61.730137 25.4438156,55.1636595 23.6794068,56.9691194 Z" id="Path" fill="#63666A"></path>
                    <path d="M30.0189339,63.5361252 C31.78299,61.730137 25.4161283,55.1636595 23.6518958,56.9692955 L18.808016,61.9770646 L18.808016,75.1098434 L30.0189339,63.5361252 Z" id="Path" fill="#5D5D5D" fill-rule="nonzero" opacity="0.3"></path>
                    <path d="M31.0564168,65.0132877 C30.6137715,65.4666341 29.8956633,65.4666341 29.4528417,65.0132877 L22.1558958,57.543816 C21.7130741,57.0906458 21.7130741,56.355499 22.1558958,55.9023288 L24.0001924,54.0144423 C24.443014,53.561272 25.1611222,53.561272 25.6037675,54.0144423 L32.9007134,61.4839139 C33.3438878,61.9372603 33.3438878,62.6720548 32.9007134,63.1255773 L31.0564168,65.0132877 Z" id="Path" fill="#F3AE4B"></path>
                </g>
            </g>
        </g>
    </g>
</svg>