<svg id="Capa_1" enable-background="new 0 0 512 512" height="512" viewBox="0 0 512 512" width="512" xmlns="http://www.w3.org/2000/svg"><g><path d="m0 255.875c0-194.447 132.301-204.459 185.065-250.448 8.302-7.236 20.603-7.236 28.905 0 52.764 45.989 185.065 56.001 185.065 250.448 0 122.818-89.327 222.381-199.518 222.381s-199.517-99.564-199.517-222.381z" fill="#e0b799"/><path d="m324.541 429.169c-230.171-43.988-258.521-270.783-220.492-375.993-51.883 31.227-104.049 80.599-104.049 202.699 0 122.817 89.327 222.381 199.518 222.381 47.337-.001 90.814-18.387 125.023-49.087z" fill="#d1986f"/><g><path d="m113.593 361.703c-2.393 0-4.744-1.143-6.197-3.267-9.607-14.043-34.519-67.885-33.695-105.932.089-4.141 3.487-7.436 7.66-7.336 4.142.09 7.426 3.52 7.336 7.66-.704 32.56 21.745 83.494 31.08 97.139 2.339 3.418 1.463 8.086-1.956 10.425-1.296.886-2.769 1.311-4.228 1.311z" fill="#e0b799"/><g fill="#d1986f"><path d="m122.096 205.999c-3.593 0-6.768-2.59-7.387-6.251-4.843-28.648 2.688-45.974 9.334-61.259 5.671-13.044 10.149-23.347 6.733-39.191-.872-4.049 1.702-8.039 5.752-8.912 4.043-.864 8.039 1.703 8.912 5.752 4.432 20.559-1.706 34.678-7.642 48.33-6.096 14.023-12.399 28.524-8.299 52.779.69 4.084-2.062 7.955-6.146 8.646-.421.072-.842.106-1.257.106z"/><path d="m235.064 322.171c-.196 0-.394-.007-.592-.022-4.13-.323-7.216-3.932-6.894-8.061 1.021-13.055-2.512-30.282-10.212-49.82-7.131-18.091-15.136-31.514-18.372-36.083-2.395-3.38-1.595-8.061 1.785-10.455 3.382-2.397 8.061-1.596 10.455 1.785 9.325 13.166 34.066 60.314 31.299 95.741-.307 3.929-3.593 6.915-7.469 6.915z"/><path d="m274.388 142.796c-1.358 0-2.731-.368-3.968-1.141-12.731-7.957-40.075-33.338-44.019-47.149-1.138-3.982 1.169-8.134 5.152-9.271 3.979-1.135 8.134 1.169 9.271 5.152 2.264 7.925 25.562 31.058 37.545 38.547 3.513 2.195 4.581 6.822 2.386 10.335-1.423 2.277-3.867 3.527-6.367 3.527z"/></g><path d="m199.523 433.133c-2.808 0-5.501-1.585-6.783-4.291-1.773-3.743-.176-8.216 3.567-9.989 9.616-4.555 28.192-22.788 37.525-47.456 1.465-3.874 5.795-5.829 9.669-4.36 3.874 1.466 5.826 5.795 4.36 9.669-10.276 27.162-30.924 48.973-45.133 55.704-1.037.49-2.129.723-3.205.723z" fill="#e0b799"/></g><path d="m360.378 223.201c0-28.822-23.365-52.187-52.187-52.187-37.692 0-62.677 38.661-47.935 72.836-37.013 17.987-50.266 63.764-29.358 98.562-13.478 10.613-22.142 27.064-22.142 45.549 0 29.072 21.406 53.14 49.316 57.313-9.689 33.444 15.449 66.726 50.118 66.726 28.822 0 52.187-23.365 52.187-52.187v-236.612z" fill="#f5e2a2"/><g fill="#fbf1cf"><path d="m291.944 426.008c-4.143 0-7.5-3.357-7.5-7.5 0-17.057 13.877-30.934 30.934-30.934 4.143 0 7.5 3.357 7.5 7.5s-3.357 7.5-7.5 7.5c-8.786 0-15.934 7.148-15.934 15.934 0 4.142-3.357 7.5-7.5 7.5z"/><path d="m300.513 351.314c-4.143 0-7.5-3.357-7.5-7.5 0-8.786-7.147-15.934-15.934-15.934-4.143 0-7.5-3.357-7.5-7.5s3.357-7.5 7.5-7.5c17.057 0 30.934 13.877 30.934 30.934 0 4.142-3.358 7.5-7.5 7.5z"/><path d="m310.524 282.078c-1.919 0-3.839-.732-5.304-2.196-12.061-12.061-12.061-31.687 0-43.748 2.93-2.928 7.678-2.928 10.607 0 2.929 2.93 2.929 7.678 0 10.607-6.213 6.212-6.213 16.321 0 22.533 2.929 2.93 2.929 7.678 0 10.607-1.464 1.465-3.384 2.197-5.303 2.197z"/></g><path d="m360.378 223.201c0-28.822 23.365-52.187 52.187-52.187 37.692 0 62.677 38.661 47.935 72.836 37.013 17.987 50.266 63.764 29.358 98.562 13.478 10.611 22.142 27.063 22.142 45.548 0 29.072-21.406 53.14-49.316 57.313 9.688 33.445-15.45 66.727-50.119 66.727-28.822 0-52.187-23.365-52.187-52.187z" fill="#fbf1cf"/><g fill="#f5e2a2"><path d="m428.81 426.008c-4.142 0-7.5-3.357-7.5-7.5 0-8.786-7.147-15.934-15.933-15.934-4.143 0-7.5-3.357-7.5-7.5s3.357-7.5 7.5-7.5c17.057 0 30.933 13.877 30.933 30.934 0 4.142-3.357 7.5-7.5 7.5z"/><path d="m420.242 351.314c-4.143 0-7.5-3.357-7.5-7.5 0-17.057 13.877-30.934 30.934-30.934 4.143 0 7.5 3.357 7.5 7.5s-3.357 7.5-7.5 7.5c-8.786 0-15.934 7.147-15.934 15.934 0 4.142-3.357 7.5-7.5 7.5z"/><path d="m410.23 282.078c-1.919 0-3.839-.732-5.304-2.196-2.929-2.93-2.929-7.678 0-10.607 3.01-3.009 4.667-7.011 4.667-11.267s-1.657-8.258-4.667-11.267c-2.929-2.93-2.929-7.678 0-10.607 2.93-2.928 7.678-2.928 10.607 0 12.06 12.061 12.06 31.687 0 43.748-1.464 1.464-3.384 2.196-5.303 2.196z"/></g></g></svg>