<?xml version="1.0" encoding="UTF-8"?>
<svg width="24px" height="14px" viewBox="0 0 24 14" version="1.1" xmlns="http://www.w3.org/2000/svg" xmlns:xlink="http://www.w3.org/1999/xlink">
    <!-- Generator: Sketch 59.1 (86144) - https://sketch.com -->
    <title>VISA</title>
    <desc>Created with Sketch.</desc>
    <g id="01" stroke="none" stroke-width="1" fill="none" fill-rule="evenodd">
        <g id="Summary" transform="translate(-36.000000, -419.000000)">
            <g id="Group" transform="translate(15.000000, 204.000000)">
                <g id="Card" transform="translate(0.000000, 180.000000)">
                    <g id="Group-8" transform="translate(15.000000, 29.000000)">
                        <g id="VISA" transform="translate(6.000000, 6.000000)">
                            <path d="M1.80987441,13.557021 C6.65162137,11.4700517 13.4452634,9.57866792 22.4427666,11.4724948 L22.5373721,9.17731723 C13.0443037,8.13491841 6.23271228,11.175384 1.80987441,13.3304893 L1.80987441,13.557021" id="Fill-2" fill="#EEA339"></path>
                            <polyline id="Fill-3" fill="#005186" points="6.8729522 7.5047286 8.97141143 0.54603782 10.8438163 0.54603782 8.74508716 7.5047286 6.8729522 7.5047286"></polyline>
                            <path d="M6.03594377,0.547938027 L4.3516701,3.4978724 C3.92290909,4.27044194 3.67215745,4.66066286 3.55164011,5.14888012 L3.52599813,5.14888012 C3.55582381,4.52995582 3.46999063,3.7701448 3.46202812,3.34056247 L3.27592127,0.547938027 L0.124251172,0.547938027 L0.0918612933,0.735108336 C0.90147329,0.735108336 1.38165323,1.14419558 1.51377694,1.98096495 L2.12810497,7.5047286 L4.0678538,7.5047286 L7.99013308,0.547938027 L6.03594377,0.547938027" id="Fill-4" fill="#005186"></path>
                            <path d="M20.5965436,7.5047286 L20.5449897,6.4699306 L18.2069803,6.4680304 L17.7288247,7.5047286 L15.695955,7.5047286 L19.3817882,0.559339264 L21.8770234,0.559339264 L22.5012034,7.5047286 L20.5965436,7.5047286 Z M20.3818257,3.40001178 C20.3609072,2.88573455 20.3436326,2.18768024 20.3783168,1.76529155 L20.3507854,1.76529155 C20.236881,2.11085761 19.7473889,3.14809873 19.5321312,3.65830409 L18.8354789,5.18376247 L20.4769709,5.18376247 L20.3818257,3.40001178 L20.3818257,3.40001178 Z" id="Fill-5" fill="#005186"></path>
                            <path d="M12.809477,7.70235004 C11.4875651,7.70235004 10.6103393,7.28077573 9.98413496,6.90480636 L10.8759363,5.53489343 C11.4381706,5.85114203 11.8796176,6.21611735 12.8954452,6.21611735 C13.2220431,6.21611735 13.5366298,6.1307438 13.7154489,5.81951717 C13.9757826,5.36686091 13.6553927,5.12336306 12.9240562,4.70694645 L12.5627741,4.47077797 C11.478523,3.72562568 11.0095445,3.01779888 11.519955,1.78252913 C11.846553,0.992179087 12.7079888,0.393206951 14.1290947,0.393206951 C15.1090234,0.393206951 16.0279513,0.819531782 16.563329,1.23621985 L15.5379194,2.44556536 C15.0153627,2.02073355 14.582553,1.80560306 14.0867179,1.80560306 C13.6916963,1.80560306 13.3914152,1.95897685 13.2877676,2.16569214 C13.0927535,2.5542843 13.3507929,2.81922733 13.9207198,3.17483735 L14.3501556,3.4496886 C15.6665342,4.28469349 15.9801762,5.16028135 15.6503393,5.9787273 C15.0827067,7.38786592 13.9717338,7.70235004 12.809477,7.70235004" id="Fill-6" fill="#005186"></path>
                            <path d="M23.0132334,1.6223689 L22.8900169,1.6223689 L22.8900169,0.86798704 L23.174508,0.86798704 C23.3556214,0.86798704 23.4480675,0.931779676 23.4480675,1.084882 C23.4480675,1.22156112 23.3647985,1.27802439 23.2523786,1.29078292 L23.462508,1.6223689 L23.3229616,1.6223689 L23.1291621,1.29987676 L23.0132334,1.29987676 L23.0132334,1.6223689 Z M23.1508903,1.19414386 C23.2433365,1.19414386 23.3249859,1.18505001 23.3249859,1.07565243 C23.3249859,0.984713991 23.2360487,0.973719941 23.1618219,0.973719941 L23.0132334,0.973719941 L23.0132334,1.19414386 L23.1508903,1.19414386 Z M23.1472465,1.91391482 C22.7577582,1.91391482 22.4805548,1.62060442 22.4805548,1.23241944 C22.4805548,0.82251782 22.7885286,0.550924065 23.1472465,0.550924065 C23.5024555,0.550924065 23.8104292,0.82251782 23.8104292,1.23241944 C23.8104292,1.64232106 23.5024555,1.91391482 23.1472465,1.91391482 Z M23.1472465,0.669415493 C22.8538482,0.669415493 22.6254995,0.900833461 22.6254995,1.23241944 C22.6254995,1.54228878 22.8248322,1.79542339 23.1472465,1.79542339 C23.4372709,1.79542339 23.6653496,1.56590563 23.6653496,1.23241944 C23.6653496,0.900833461 23.4372709,0.669415493 23.1472465,0.669415493 L23.1472465,0.669415493 Z" id="Fill-7" fill="#005186"></path>
                        </g>
                    </g>
                </g>
            </g>
        </g>
    </g>
</svg>